<?xml version="1.0" encoding="UTF-8"?>
<!DOCTYPE svg PUBLIC "-//W3C//DTD SVG 1.1//EN" "http://www.w3.org/Graphics/SVG/1.1/DTD/svg11.dtd">
<!-- Creator: CorelDRAW 2018 (64-Bit) -->
<svg xmlns="http://www.w3.org/2000/svg" xml:space="preserve" width="600px" height="170px" version="1.1" style="shape-rendering:geometricPrecision; text-rendering:geometricPrecision; image-rendering:optimizeQuality; fill-rule:evenodd; clip-rule:evenodd"
viewBox="0 0 600 170"
 xmlns:xlink="http://www.w3.org/1999/xlink">
 <defs>
  <style type="text/css">
   <![CDATA[
    .fil0 {fill:#FF99CC}
    .fil1 {fill:white}
   ]]>
  </style>
    <clipPath id="id0">
     <rect width="600" height="170"/>
    </clipPath>
 </defs>
 <g id="Слой_x0020_1">
  <metadata id="CorelCorpID_0Corel-Layer"/>
  <g id="_2462081416256">
   <g style="clip-path:url(#id0)">
    <image x="0" y="0" width="600" height="170" xlink:href="sneshskazka-main600_Images\sneshskazka-main600_ImgID1.png"/>
   </g>
   <polygon class="fil0" points="0,0 600,0 600,170 0,170 "/>
   <polygon class="fil1" points="62.04,33.5 61.25,125.69 80.79,133.5 260.47,117.1 260.47,40.92 260.32,38.98 246.74,39.9 226.62,38.51 226.43,36.61 216.3,37.69 209.43,37.27 209.51,25.44 186.46,23.64 179.39,24.61 179.24,35.14 166.2,34.25 165.91,31.95 155.46,33.51 120.49,31.26 120.26,28.45 117.67,28.68 109.25,30.49 81.27,28.42 "/>
   <polygon class="fil1" points="260.47,40.92 260.47,117.1 338.21,112.8 338.99,45.9 339.03,45.35 333.11,45.02 332.69,44.49 327.79,44.72 322.44,44.31 321.78,43.97 319.87,44.19 319.6,43.62 314.84,43.99 311.52,43.8 311.62,42.98 305.49,43.11 298.84,42.71 298.89,42.25 293.97,42.27 293.96,41.96 289.14,41.9 289.18,42.32 286.79,42.2 286.74,41.03 277.61,41.76 "/>
   <polygon class="fil1" points="338.99,45.9 338.21,112.8 363.21,110.06 372.19,109.28 410.47,112.41 410.36,46 403.15,46.07 403.1,45.64 401.89,45.66 401.89,46.08 374.54,46.34 374.58,45.62 355.88,45.71 355.93,46.34 344.31,46.04 344.4,45.43 339.03,45.35 "/>
   <polygon class="fil1" points="410.36,46 410.47,112.41 534.3,119.83 555.36,114.95 555.01,42.17 533.52,38.58 520.33,39.39 509.67,37.1 509.84,40.03 507.05,40.2 499.45,38.91 496.65,38.86 496.65,40.82 490.86,40.84 490.84,32.68 479.78,30.65 467.09,31.82 466.91,42.18 465.24,41.86 457.89,41.09 457.76,42.96 440,43.75 429.1,42.83 429.39,44.5 424.16,44.33 424.21,44.82 416.4,44.63 416.35,45.17 410.68,45.27 "/>
  </g>
 </g>
</svg>
